<svg width="403" height="291" viewBox="0 0 403 291" fill="none" xmlns="http://www.w3.org/2000/svg">
<g clip-path="url(#clip0)">
<path opacity="0.1" d="M234.147 44.5457C208.312 43.649 183.704 35.2929 160.209 26.1509C136.713 17.009 113.436 6.88813 88.2213 2.04027C72.0015 -1.07493 53.4528 -1.53221 40.3856 7.19536C27.807 15.5764 23.7449 30.0592 21.5623 43.4739C19.9182 53.5769 18.9517 64.1943 23.4524 73.6649C26.5801 80.2276 32.133 85.7471 35.974 92.0346C49.33 113.92 39.897 140.903 25.4104 162.266C18.6343 172.29 10.7419 181.85 5.50289 192.521C0.263887 203.192 -2.16125 215.414 2.42154 226.296C6.96867 237.085 17.7962 245.173 29.5295 250.889C53.3565 262.463 81.4345 265.779 108.814 267.654C169.42 271.805 230.352 270.008 291.119 268.208C313.609 267.54 336.195 266.865 358.32 263.382C370.603 261.449 383.285 258.38 392.201 250.967C403.524 241.557 406.331 225.624 398.742 213.813C386.017 194.025 350.828 189.11 341.933 167.871C337.036 156.182 342.065 143.16 349.18 132.318C364.444 109.058 390.029 88.6551 391.377 62.0687C392.305 43.8097 380.004 25.5222 360.988 16.8839C341.052 7.82769 313.413 8.96731 298.705 23.9574C283.569 39.3977 256.957 45.3387 234.147 44.5457Z" fill="#047BEF"/>
<path d="M294.796 47.8962H125.608C121.708 47.8962 118.546 51.0632 118.546 54.9697V261.949C118.546 265.855 121.708 269.022 125.608 269.022H294.796C298.696 269.022 301.858 265.855 301.858 261.949V54.9697C301.858 51.0632 298.696 47.8962 294.796 47.8962Z" fill="#464353"/>
<path opacity="0.1" d="M286.044 68.856H134.359V245.369H286.044V68.856Z" fill="white" stroke="white" stroke-miterlimit="10"/>
<path d="M210.202 264.821C213.767 264.821 216.657 261.926 216.657 258.355C216.657 254.783 213.767 251.888 210.202 251.888C206.637 251.888 203.747 254.783 203.747 258.355C203.747 261.926 206.637 264.821 210.202 264.821Z" fill="white"/>
<path d="M210.202 63.8795C209.599 63.876 209.011 63.6937 208.512 63.3556C208.013 63.0175 207.625 62.5388 207.397 61.98C207.169 61.4211 207.112 60.8072 207.232 60.2156C207.352 59.6241 207.645 59.0816 208.072 58.6565C208.5 58.2314 209.044 57.9428 209.636 57.8272C210.227 57.7116 210.84 57.7741 211.396 58.0069C211.952 58.2397 212.426 58.6323 212.76 59.1352C213.093 59.638 213.27 60.2285 213.269 60.8322C213.268 61.2341 213.187 61.6318 213.032 62.0025C212.877 62.3732 212.651 62.7097 212.366 62.9927C212.081 63.2757 211.743 63.4997 211.372 63.6519C211.001 63.8041 210.603 63.8814 210.202 63.8795Z" fill="white"/>
<path d="M210.202 57.9492C210.771 57.9456 211.329 58.1118 211.804 58.4264C212.279 58.741 212.649 59.19 212.869 59.7162C213.088 60.2424 213.147 60.8221 213.036 61.3816C212.926 61.9412 212.652 62.4552 212.25 62.8585C211.847 63.2618 211.334 63.536 210.776 63.6464C210.217 63.7568 209.638 63.6983 209.113 63.4785C208.588 63.2586 208.139 62.8872 207.825 62.4116C207.511 61.9359 207.345 61.3774 207.349 60.8071C207.355 60.0509 207.657 59.3272 208.191 58.7925C208.725 58.2577 209.447 57.9548 210.202 57.9492ZM210.202 57.5919C209.563 57.5919 208.938 57.782 208.407 58.1381C207.876 58.4941 207.462 59.0001 207.218 59.5919C206.975 60.1837 206.912 60.8347 207.038 61.4624C207.164 62.09 207.473 62.666 207.926 63.1175C208.379 63.5689 208.956 63.8754 209.583 63.9981C210.211 64.1209 210.86 64.0543 211.45 63.8068C212.039 63.5594 212.542 63.1422 212.894 62.6082C213.247 62.0742 213.433 61.4473 213.43 60.8071C213.425 59.9528 213.083 59.135 212.478 58.5326C211.873 57.9301 211.055 57.5919 210.202 57.5919Z" fill="white"/>
<path d="M207.848 102.702V96.4141H212.556V102.702H217.342V93.2739H220.402L210.202 83.8425L200.006 93.2739H203.062V102.702H207.848Z" fill="#047BEF"/>
<path d="M157.43 131.925V125.137C157.43 124.755 157.279 124.388 157.009 124.118C156.739 123.847 156.373 123.695 155.991 123.695C155.61 123.695 155.244 123.847 154.974 124.118C154.704 124.388 154.552 124.755 154.552 125.137V131.925C153.985 132.243 153.538 132.742 153.284 133.342C153.029 133.942 152.98 134.609 153.145 135.24C153.309 135.871 153.678 136.429 154.193 136.828C154.708 137.226 155.34 137.443 155.991 137.443C156.642 137.443 157.275 137.226 157.79 136.828C158.305 136.429 158.674 135.871 158.838 135.24C159.003 134.609 158.954 133.942 158.699 133.342C158.444 132.742 157.998 132.243 157.43 131.925ZM155.494 125.137C155.504 125.014 155.561 124.899 155.651 124.816C155.742 124.732 155.861 124.686 155.984 124.686C156.107 124.686 156.226 124.732 156.317 124.816C156.408 124.899 156.464 125.014 156.475 125.137V126.659H155.494V125.137Z" fill="white" stroke="white" stroke-miterlimit="10"/>
<path opacity="0.3" d="M261.515 130.067H175.922V131.021H261.515V130.067Z" fill="#047BEF"/>
<path d="M202.352 132.807C203.599 132.807 204.61 131.794 204.61 130.546C204.61 129.297 203.599 128.284 202.352 128.284C201.106 128.284 200.095 129.297 200.095 130.546C200.095 131.794 201.106 132.807 202.352 132.807Z" fill="#047BEF"/>
<path d="M202.352 130.067H175.922V131.021H202.352V130.067Z" fill="#047BEF"/>
<path d="M156.489 165.092C156.473 164.964 156.41 164.847 156.312 164.764C156.214 164.681 156.089 164.637 155.961 164.641C155.844 164.638 155.729 164.674 155.636 164.744C155.542 164.814 155.474 164.914 155.444 165.027L154.923 167.864C154.909 167.936 154.902 168.009 154.902 168.082C154.902 168.366 155.014 168.639 155.215 168.84C155.416 169.041 155.688 169.153 155.972 169.153C156.255 169.153 156.527 169.041 156.728 168.84C156.929 168.639 157.041 168.366 157.041 168.082C157.04 167.994 157.028 167.906 157.006 167.821L156.489 165.092ZM160.54 166.31C160.485 166.265 160.427 166.224 160.365 166.188L158.254 164.731C158.174 164.671 158.076 164.641 157.976 164.646C157.876 164.652 157.782 164.692 157.708 164.759C157.643 164.817 157.601 164.897 157.59 164.984C157.58 165.071 157.601 165.159 157.651 165.231L159.278 167.249C159.309 167.297 159.345 167.341 159.385 167.381C159.545 167.52 159.749 167.596 159.961 167.596C160.172 167.596 160.377 167.52 160.537 167.381C160.612 167.314 160.673 167.232 160.715 167.14C160.756 167.047 160.778 166.947 160.778 166.846C160.778 166.744 160.756 166.644 160.715 166.552C160.673 166.459 160.612 166.377 160.537 166.31H160.54ZM161.967 164.227L159.987 164.156C159.928 164.146 159.867 164.16 159.818 164.195C159.769 164.23 159.735 164.282 159.723 164.341C159.716 164.398 159.727 164.455 159.756 164.504C159.784 164.553 159.828 164.591 159.88 164.613L161.795 165.156C162.074 165.217 162.384 165.088 162.384 164.799C162.384 164.441 162.28 164.259 161.967 164.223V164.227ZM152.131 164.613C152.183 164.591 152.227 164.553 152.255 164.504C152.284 164.455 152.295 164.398 152.288 164.341C152.275 164.282 152.241 164.229 152.191 164.195C152.141 164.16 152.08 164.146 152.02 164.156L150.044 164.227C149.727 164.263 149.634 164.438 149.634 164.799C149.634 165.084 149.937 165.217 150.212 165.156L152.127 164.609L152.131 164.613ZM153.746 164.727L151.635 166.181C151.574 166.216 151.517 166.257 151.464 166.303C151.388 166.37 151.327 166.452 151.285 166.545C151.244 166.637 151.222 166.737 151.222 166.838C151.222 166.94 151.244 167.04 151.285 167.132C151.327 167.225 151.388 167.307 151.464 167.374C151.621 167.518 151.825 167.597 152.038 167.597C152.25 167.597 152.455 167.518 152.612 167.374C152.655 167.337 152.692 167.293 152.723 167.246L154.349 165.234C154.399 165.162 154.42 165.075 154.41 164.988C154.399 164.901 154.357 164.821 154.292 164.763C154.218 164.691 154.121 164.648 154.018 164.641C153.916 164.635 153.814 164.665 153.732 164.727H153.746ZM156.007 155.31C156.007 155.31 156.935 156.382 156.935 157.286C156.95 157.481 156.925 157.678 156.862 157.863C156.798 158.049 156.697 158.22 156.565 158.364C156.433 158.509 156.273 158.625 156.094 158.705C155.915 158.785 155.722 158.827 155.526 158.829C155.326 158.829 155.127 158.788 154.943 158.71C154.759 158.632 154.592 158.517 154.452 158.373C154.313 158.23 154.203 158.059 154.13 157.872C154.058 157.686 154.023 157.486 154.028 157.286V157.075C153.162 158.128 152.691 159.451 152.694 160.815C152.694 161.693 153.042 162.534 153.661 163.154C154.281 163.775 155.121 164.123 155.997 164.123C156.872 164.123 157.712 163.775 158.332 163.154C158.951 162.534 159.299 161.693 159.299 160.815C159.299 158.586 158.201 155.975 155.993 155.31H156.007ZM155.89 162.884C155.541 162.888 155.205 162.753 154.956 162.509C154.707 162.265 154.564 161.932 154.559 161.583C154.559 161.263 154.677 160.953 154.891 160.715C155.105 160.477 155.4 160.326 155.718 160.294C156.461 160.172 157.138 159.793 157.63 159.222C157.792 159.764 157.873 160.328 157.872 160.894C157.872 161.421 157.664 161.926 157.292 162.298C156.92 162.671 156.415 162.88 155.89 162.88V162.884Z" fill="white" stroke="white" stroke-miterlimit="10"/>
<path opacity="0.3" d="M261.515 161.708H175.922V162.662H261.515V161.708Z" fill="#047BEF"/>
<path d="M222.324 164.448C223.571 164.448 224.582 163.436 224.582 162.187C224.582 160.938 223.571 159.926 222.324 159.926C221.077 159.926 220.067 160.938 220.067 162.187C220.067 163.436 221.077 164.448 222.324 164.448Z" fill="#047BEF"/>
<path d="M222.542 161.708H175.922V162.662H222.542V161.708Z" fill="#047BEF"/>
<path d="M154.032 198.884C154.032 199.046 154.097 199.202 154.212 199.317C154.327 199.432 154.483 199.497 154.645 199.498H157.341C157.504 199.497 157.659 199.432 157.774 199.317C157.889 199.202 157.954 199.046 157.955 198.884V198.333H154.032V198.884ZM155.993 187.709C153.55 187.709 151.581 189.549 151.581 191.824C151.587 192.503 151.762 193.169 152.091 193.762C152.42 194.355 152.892 194.856 153.464 195.218V196.551C153.467 196.631 153.486 196.71 153.519 196.783C153.552 196.856 153.599 196.922 153.658 196.977C153.717 197.031 153.786 197.074 153.861 197.102C153.936 197.13 154.016 197.143 154.096 197.14H157.89C157.97 197.143 158.05 197.13 158.125 197.102C158.201 197.074 158.269 197.031 158.328 196.977C158.387 196.922 158.434 196.856 158.467 196.783C158.5 196.71 158.519 196.631 158.522 196.551V195.218C159.095 194.857 159.569 194.356 159.898 193.763C160.228 193.17 160.403 192.503 160.408 191.824C160.408 189.549 158.436 187.709 155.993 187.709Z" fill="white" stroke="white" stroke-miterlimit="10"/>
<path opacity="0.3" d="M261.515 193.128H175.922V194.082H261.515V193.128Z" fill="#047BEF"/>
<path d="M244.436 195.865C245.682 195.865 246.693 194.852 246.693 193.603C246.693 192.355 245.682 191.342 244.436 191.342C243.189 191.342 242.178 192.355 242.178 193.603C242.178 194.852 243.189 195.865 244.436 195.865Z" fill="#047BEF"/>
<path d="M244.653 193.128H175.922V194.082H244.653V193.128Z" fill="#047BEF"/>
<path d="M153.051 217.61V224.484H155.012V230.379L158.935 222.519H156.974L158.935 217.61H153.051Z" fill="white" stroke="white" stroke-miterlimit="10"/>
<path opacity="0.3" d="M261.515 223.519H175.922V224.473H261.515V223.519Z" fill="#047BEF"/>
<path d="M202.352 226.256C203.599 226.256 204.61 225.243 204.61 223.995C204.61 222.746 203.599 221.733 202.352 221.733C201.106 221.733 200.095 222.746 200.095 223.995C200.095 225.243 201.106 226.256 202.352 226.256Z" fill="#047BEF"/>
<path d="M202.352 223.519H175.922V224.473H202.352V223.519Z" fill="#047BEF"/>
<path d="M122.712 282.933C134.425 282.933 143.921 281.104 143.921 278.846C143.921 276.589 134.425 274.76 122.712 274.76C110.998 274.76 101.502 276.589 101.502 278.846C101.502 281.104 110.998 282.933 122.712 282.933Z" fill="#047BEF"/>
<path d="M122.359 280.347C123.722 280.347 124.827 278.898 124.827 277.11C124.827 275.323 123.722 273.874 122.359 273.874C120.996 273.874 119.891 275.323 119.891 277.11C119.891 278.898 120.996 280.347 122.359 280.347Z" fill="#3F3D56"/>
<path d="M122.359 276.389C123.722 276.389 124.827 274.939 124.827 273.152C124.827 271.364 123.722 269.915 122.359 269.915C120.996 269.915 119.891 271.364 119.891 273.152C119.891 274.939 120.996 276.389 122.359 276.389Z" fill="#3F3D56"/>
<path d="M122.359 272.434C123.722 272.434 124.827 270.985 124.827 269.197C124.827 267.41 123.722 265.96 122.359 265.96C120.996 265.96 119.891 267.41 119.891 269.197C119.891 270.985 120.996 272.434 122.359 272.434Z" fill="#3F3D56"/>
<path d="M122.359 268.476C123.722 268.476 124.827 267.026 124.827 265.239C124.827 263.451 123.722 262.002 122.359 262.002C120.996 262.002 119.891 263.451 119.891 265.239C119.891 267.026 120.996 268.476 122.359 268.476Z" fill="#3F3D56"/>
<path d="M122.359 264.517C123.722 264.517 124.827 263.068 124.827 261.28C124.827 259.493 123.722 258.044 122.359 258.044C120.996 258.044 119.891 259.493 119.891 261.28C119.891 263.068 120.996 264.517 122.359 264.517Z" fill="#3F3D56"/>
<path d="M122.359 260.559C123.722 260.559 124.827 259.11 124.827 257.322C124.827 255.535 123.722 254.086 122.359 254.086C120.996 254.086 119.891 255.535 119.891 257.322C119.891 259.11 120.996 260.559 122.359 260.559Z" fill="#3F3D56"/>
<path d="M122.359 256.601C123.722 256.601 124.827 255.151 124.827 253.364C124.827 251.576 123.722 250.127 122.359 250.127C120.996 250.127 119.891 251.576 119.891 253.364C119.891 255.151 120.996 256.601 122.359 256.601Z" fill="#3F3D56"/>
<path d="M131.599 226.284C131.936 225.853 132.243 225.4 132.519 224.927L126.028 223.855L133.047 223.909C133.719 222.441 134.086 220.852 134.124 219.238C134.163 217.624 133.873 216.018 133.272 214.52L123.864 219.415L132.544 213.02C131.731 211.611 130.637 210.386 129.33 209.419C128.023 208.453 126.532 207.766 124.948 207.403C123.365 207.039 121.724 207.006 120.127 207.305C118.531 207.605 117.013 208.23 115.668 209.143C114.323 210.056 113.181 211.236 112.311 212.611C111.442 213.985 110.864 215.524 110.615 217.132C110.365 218.74 110.449 220.382 110.861 221.956C111.272 223.53 112.003 225.002 113.008 226.281C112.485 226.946 112.033 227.665 111.66 228.424L120.083 232.808L111.103 229.811C110.473 231.677 110.317 233.672 110.649 235.614C110.982 237.557 111.792 239.386 113.008 240.935C111.636 242.683 110.783 244.782 110.547 246.992C110.31 249.202 110.698 251.434 111.668 253.433C112.638 255.433 114.15 257.118 116.031 258.298C117.912 259.477 120.086 260.102 122.305 260.102C124.524 260.102 126.698 259.477 128.579 258.298C130.46 257.118 131.972 255.433 132.942 253.433C133.912 251.434 134.301 249.202 134.064 246.992C133.827 244.782 132.974 242.683 131.603 240.935C133.241 238.847 134.131 236.268 134.131 233.612C134.131 230.956 133.241 228.377 131.603 226.288L131.599 226.284Z" fill="#047BEF"/>
<path opacity="0.1" d="M110.479 233.608C110.474 236.265 111.365 238.846 113.008 240.932C111.636 242.679 110.783 244.778 110.547 246.988C110.31 249.198 110.698 251.431 111.668 253.43C112.638 255.429 114.15 257.115 116.031 258.294C117.912 259.474 120.086 260.099 122.305 260.099C124.524 260.099 126.698 259.474 128.579 258.294C130.46 257.115 131.972 255.429 132.942 253.43C133.912 251.431 134.3 249.198 134.064 246.988C133.827 244.778 132.974 242.679 131.603 240.932C133.186 238.917 110.479 232.279 110.479 233.608Z" fill="black"/>
<path d="M76.2919 249.691C94.4009 249.691 109.081 246.864 109.081 243.375C109.081 239.887 94.4009 237.059 76.2919 237.059C58.1829 237.059 43.5027 239.887 43.5027 243.375C43.5027 246.864 58.1829 249.691 76.2919 249.691Z" fill="#047BEF"/>
<path d="M76.8375 245.697C78.945 245.697 80.6535 243.456 80.6535 240.692C80.6535 237.928 78.945 235.687 76.8375 235.687C74.73 235.687 73.0215 237.928 73.0215 240.692C73.0215 243.456 74.73 245.697 76.8375 245.697Z" fill="#3F3D56"/>
<path d="M76.8375 239.578C78.945 239.578 80.6535 237.337 80.6535 234.573C80.6535 231.808 78.945 229.568 76.8375 229.568C74.73 229.568 73.0215 231.808 73.0215 234.573C73.0215 237.337 74.73 239.578 76.8375 239.578Z" fill="#3F3D56"/>
<path d="M76.8375 233.458C78.945 233.458 80.6535 231.217 80.6535 228.453C80.6535 225.689 78.945 223.448 76.8375 223.448C74.73 223.448 73.0215 225.689 73.0215 228.453C73.0215 231.217 74.73 233.458 76.8375 233.458Z" fill="#3F3D56"/>
<path d="M76.8375 227.338C78.945 227.338 80.6535 225.098 80.6535 222.333C80.6535 219.569 78.945 217.328 76.8375 217.328C74.73 217.328 73.0215 219.569 73.0215 222.333C73.0215 225.098 74.73 227.338 76.8375 227.338Z" fill="#3F3D56"/>
<path d="M76.8375 221.222C78.945 221.222 80.6535 218.981 80.6535 216.217C80.6535 213.453 78.945 211.212 76.8375 211.212C74.73 211.212 73.0215 213.453 73.0215 216.217C73.0215 218.981 74.73 221.222 76.8375 221.222Z" fill="#3F3D56"/>
<path d="M76.8375 215.103C78.945 215.103 80.6535 212.862 80.6535 210.098C80.6535 207.333 78.945 205.093 76.8375 205.093C74.73 205.093 73.0215 207.333 73.0215 210.098C73.0215 212.862 74.73 215.103 76.8375 215.103Z" fill="#3F3D56"/>
<path d="M76.8375 208.983C78.945 208.983 80.6535 206.742 80.6535 203.978C80.6535 201.214 78.945 198.973 76.8375 198.973C74.73 198.973 73.0215 201.214 73.0215 203.978C73.0215 206.742 74.73 208.983 76.8375 208.983Z" fill="#3F3D56"/>
<path d="M62.5471 162.105C62.0246 161.439 61.548 160.738 61.1206 160.008L71.1563 158.361L60.3074 158.443C59.2663 156.175 58.6977 153.718 58.6364 151.222C58.5751 148.727 59.0223 146.245 59.9508 143.928L74.5087 151.491L61.092 141.602C62.3515 139.429 64.0439 137.538 66.0639 136.048C68.084 134.558 70.3886 133.5 72.8343 132.94C75.2801 132.38 77.8146 132.33 80.2804 132.794C82.7462 133.257 85.0905 134.223 87.1674 135.633C89.2443 137.043 91.0095 138.865 92.3532 140.988C93.6968 143.11 94.5902 145.486 94.9777 147.969C95.3653 150.452 95.2387 152.988 94.6058 155.42C93.973 157.852 92.8474 160.127 91.2992 162.105C92.1121 163.14 92.8105 164.259 93.3819 165.445L80.3611 172.233L94.245 167.564C95.2191 170.449 95.4599 173.532 94.9455 176.534C94.4312 179.537 93.178 182.363 91.2992 184.758C93.4211 187.46 94.7411 190.706 95.1083 194.124C95.4755 197.543 94.875 200.995 93.3756 204.088C91.8761 207.18 89.5382 209.788 86.629 211.612C83.7199 213.436 80.3571 214.404 76.9249 214.404C73.4928 214.404 70.1299 213.436 67.2208 211.612C64.3117 209.788 61.9737 207.18 60.4743 204.088C58.9748 200.995 58.3743 197.543 58.7415 194.124C59.1087 190.706 60.4287 187.46 62.5507 184.758C60.0161 181.528 58.6382 177.539 58.6382 173.431C58.6382 169.323 60.0161 165.334 62.5507 162.105H62.5471Z" fill="#047BEF"/>
<path opacity="0.1" d="M95.2221 173.43C95.2251 177.541 93.8428 181.532 91.2991 184.758C93.421 187.46 94.741 190.706 95.1082 194.124C95.4754 197.543 94.8749 200.995 93.3755 204.088C91.876 207.18 89.5381 209.788 86.629 211.612C83.7198 213.436 80.357 214.404 76.9248 214.404C73.4927 214.404 70.1298 213.436 67.2207 211.612C64.3116 209.788 61.9737 207.18 60.4742 204.088C58.9747 200.995 58.3743 197.543 58.7414 194.124C59.1086 190.706 60.4287 187.46 62.5506 184.758C60.0969 181.639 95.2221 171.375 95.2221 173.43Z" fill="black"/>
<path opacity="0.1" d="M314.554 291C334.054 291 349.861 287.641 349.861 283.498C349.861 279.354 334.054 275.996 314.554 275.996C295.054 275.996 279.247 279.354 279.247 283.498C279.247 287.641 295.054 291 314.554 291Z" fill="#047BEF"/>
<path d="M301.448 284.362C301.469 284.545 301.515 284.724 301.583 284.895C301.778 285.553 302.191 286.126 302.753 286.52C303.041 286.687 303.354 286.808 303.68 286.877C305.866 287.402 308.138 287.235 310.371 287.46C312.603 287.685 314.968 288.267 317.172 287.638C317.7 287.488 318.242 287.213 318.456 286.674C318.47 286.64 318.48 286.606 318.488 286.57C320.089 286.777 321.697 286.927 323.231 286.495C323.755 286.345 324.301 286.07 324.515 285.53C324.597 285.251 324.622 284.959 324.59 284.67C324.526 283.165 324.454 281.64 323.998 280.215C323.827 279.701 323.624 279.198 323.388 278.711C323.038 277.96 322.658 277.228 322.247 276.514L322.122 276.281C322.421 276.414 322.714 276.556 323.003 276.71C324.327 272.585 325.293 268.352 325.888 264.06C326.626 258.968 326.476 253.786 325.446 248.745C325.127 247.063 325.008 245.349 325.089 243.64C325.235 240.235 326.023 236.905 326.808 233.597C327.208 231.93 327.606 230.252 328.003 228.564C328.569 226.182 329.137 223.791 329.708 221.39C330.086 219.8 330.464 218.175 330.346 216.539C330.264 215.644 330.087 214.76 329.818 213.902C329.415 212.518 328.915 211.164 328.32 209.851C328.495 209.884 328.676 209.847 328.823 209.747C328.94 209.624 329.019 209.469 329.048 209.301L329.946 206.057C330.578 203.785 331.209 201.495 331.373 199.137C331.569 196.469 331.166 193.778 331.081 191.121C330.97 187.648 331.391 184.165 331.166 180.7C331.116 179.949 331.038 179.203 330.949 178.46C330.988 178.067 330.999 177.674 331.009 177.281C331.066 175.344 331.045 173.412 330.335 171.626C329.848 170.351 329.038 169.226 327.985 168.36C328.017 168.2 328.053 168.042 328.085 167.882L328.834 164.309C329.661 160.347 330.496 156.289 330.021 152.263C329.597 148.69 327.924 145.061 325.093 143.153L325.068 143.135L324.765 142.942L324.711 142.91C324.618 142.853 324.522 142.799 324.426 142.749L324.354 142.71C324.24 142.646 324.119 142.585 323.998 142.531C323.089 142.121 322.129 141.834 321.145 141.677L320.752 141.617C320.361 141.555 319.967 141.514 319.572 141.495H319.176C318.781 141.49 318.387 141.514 317.996 141.567C317.849 141.567 317.707 141.61 317.56 141.638L317.133 141.727C316.286 141.97 315.423 142.15 314.55 142.267C314.386 142.267 314.219 142.288 314.055 142.292C313.559 142.292 313.063 142.26 312.564 142.231C312.318 142.231 312.068 142.21 311.822 142.21C311.412 142.204 311.002 142.241 310.599 142.32C309.902 142.48 309.247 142.783 308.673 143.21C308.25 143.519 307.858 143.868 307.503 144.253C307.215 144.565 306.943 144.891 306.69 145.232C306.572 145.389 306.458 145.55 306.334 145.718L306.169 145.972C306.066 146.147 305.966 146.329 305.873 146.5C305.736 146.768 305.617 147.045 305.517 147.329C305.233 148.068 305.177 148.876 305.356 149.648C305.4 149.811 305.452 149.972 305.513 150.13C304.864 151.413 304.528 152.832 304.533 154.27C304.533 158.2 306.979 161.515 310.342 162.609C310.752 163.366 311.252 164.331 311.669 165.267C310.784 165.901 310.013 166.681 309.39 167.574C307.3 167.456 305.239 169.125 304.575 171.229C304.333 172.039 304.247 172.888 304.322 173.73C303.887 175.487 303.866 177.388 303.826 179.224C303.766 182.118 303.616 185.004 303.47 187.895C303.324 190.785 303.174 193.65 303.024 196.529C302.981 197.355 302.938 198.183 302.831 199.001C302.307 199.141 302.282 199.859 302.343 200.43C302.507 201.956 302.774 203.499 302.945 205.032C302.712 205.977 302.663 206.958 302.799 207.922L303.102 208.058C303.085 209.045 302.941 210.026 302.674 210.976C302.639 211.149 302.56 211.31 302.446 211.444C302.597 211.38 302.757 211.34 302.921 211.326C302.468 212.82 302.107 214.349 301.576 215.817C301.301 216.574 300.98 217.318 300.745 218.093C300.539 218.829 300.372 219.575 300.246 220.329C300.156 220.763 300.093 221.202 300.057 221.644C300.003 222.492 300.145 223.34 300.471 224.124C300.797 224.908 301.298 225.607 301.936 226.167C301.936 226.46 301.915 226.749 301.915 227.042C301.915 229.132 302.222 231.215 302.147 233.301C302.047 236.112 301.544 238.774 301.53 241.589C301.483 249.377 303.616 256.99 306.12 264.31C307.111 267.211 308.163 270.084 309.276 272.93C309.932 274.617 310.674 276.503 309.968 278.157C310.207 278.06 310.442 277.971 310.681 277.885C310.309 278.82 309.754 279.671 309.048 280.386C307.941 281.477 306.498 282.161 304.953 282.326C304.208 282.408 303.441 282.365 302.731 282.626C302.022 282.887 301.376 283.573 301.448 284.362ZM310.563 243.95C311.338 239.924 312.821 236.068 314.943 232.561L314.964 232.794C315.078 233.944 315.289 235.094 315.517 236.241C315.995 238.656 316.555 241.067 316.469 243.493C316.38 246.064 316.53 248.638 316.919 251.181C317.036 252.176 317.276 253.153 317.632 254.089C317.867 254.646 318.174 255.161 318.345 255.747C318.53 256.416 318.626 257.107 318.63 257.801C318.947 263.525 318.597 269.266 317.589 274.909C317.343 274.909 317.186 274.949 317.182 274.981C317.033 275.946 316.703 276.875 316.209 277.717L316.166 277.639C316.08 277.489 315.991 277.317 315.899 277.146L316.195 277.192C315.378 275.428 315.453 273.37 315.417 271.405C315.346 268.739 315.076 266.082 314.608 263.456C313.907 259.482 312.69 255.617 310.988 251.96C310.637 251.19 310.397 250.375 310.274 249.538C310.048 247.673 310.146 245.782 310.563 243.95ZM325.275 201.438C325.14 201.256 324.996 201.082 324.843 200.916C324.486 200.534 324.058 200.091 324.165 199.569C324.22 199.365 324.322 199.176 324.465 199.019C324.751 198.66 325.069 198.326 325.414 198.023L325.528 197.923C325.442 199.087 325.358 200.255 325.275 201.427V201.438Z" fill="url(#paint0_linear)"/>
<path d="M330.474 175.509L330.867 178.542C330.999 179.571 331.13 180.596 331.202 181.628C331.441 185.065 330.999 188.516 331.113 191.96C331.205 194.611 331.626 197.258 331.423 199.905C331.241 202.242 330.578 204.514 329.914 206.764L328.973 209.98C328.941 210.148 328.859 210.302 328.737 210.423C328.556 210.53 328.341 210.565 328.135 210.519L323.955 210.162C324.222 208.933 324.518 207.661 324.668 206.4C324.782 205.414 324.85 204.421 324.921 203.428C325.143 200.334 325.396 197.24 325.635 194.139L326.081 188.709C326.27 186.351 326.466 183.983 327.058 181.693C327.648 179.372 328.825 177.243 330.474 175.509Z" fill="#047BEF"/>
<path opacity="0.1" d="M330.474 175.509L330.867 178.542C330.999 179.571 331.13 180.596 331.202 181.628C331.441 185.065 330.999 188.516 331.113 191.96C331.205 194.611 331.626 197.258 331.423 199.905C331.241 202.242 330.578 204.514 329.914 206.764L328.973 209.98C328.941 210.148 328.859 210.302 328.737 210.423C328.556 210.53 328.341 210.565 328.135 210.519L323.955 210.162C324.222 208.933 324.518 207.661 324.668 206.4C324.782 205.414 324.85 204.421 324.921 203.428C325.143 200.334 325.396 197.24 325.635 194.139L326.081 188.709C326.27 186.351 326.466 183.983 327.058 181.693C327.648 179.372 328.825 177.243 330.474 175.509Z" fill="black"/>
<path d="M323.028 278.771C323.273 279.255 323.487 279.754 323.67 280.265C324.148 281.676 324.219 283.191 324.29 284.68C324.322 284.967 324.295 285.258 324.212 285.534C324.005 286.07 323.413 286.342 322.86 286.488C320.545 287.113 318.106 286.527 315.727 286.313C313.349 286.099 310.998 286.256 308.702 285.738C308.362 285.672 308.034 285.558 307.728 285.398C307.146 285.019 306.712 284.452 306.498 283.791C306.428 283.621 306.382 283.444 306.358 283.262C306.284 282.476 306.965 281.797 307.707 281.54C308.448 281.283 309.258 281.322 310.039 281.244C311.648 281.079 313.157 280.387 314.333 279.275C315.509 278.164 316.286 276.694 316.544 275.095C316.573 274.924 320.41 275.027 320.824 275.249C321.294 275.51 321.58 276.156 321.847 276.596C322.268 277.303 322.662 278.028 323.028 278.771Z" fill="#A26565"/>
<path opacity="0.1" d="M323.028 278.771C323.273 279.255 323.487 279.754 323.67 280.265C324.148 281.676 324.219 283.191 324.29 284.68C324.322 284.967 324.295 285.258 324.212 285.534C324.005 286.07 323.413 286.342 322.86 286.488C320.545 287.113 318.106 286.527 315.727 286.313C313.349 286.099 310.998 286.256 308.702 285.738C308.362 285.672 308.034 285.558 307.728 285.398C307.146 285.019 306.712 284.452 306.498 283.791C306.428 283.621 306.382 283.444 306.358 283.262C306.284 282.476 306.965 281.797 307.707 281.54C308.448 281.283 309.258 281.322 310.039 281.244C311.648 281.079 313.157 280.387 314.333 279.275C315.509 278.164 316.286 276.694 316.544 275.095C316.573 274.924 320.41 275.027 320.824 275.249C321.294 275.51 321.58 276.156 321.847 276.596C322.268 277.303 322.662 278.028 323.028 278.771Z" fill="black"/>
<path d="M316.662 279.907C316.909 280.389 317.123 280.887 317.304 281.397C317.785 282.826 317.856 284.323 317.924 285.813C317.957 286.1 317.931 286.391 317.846 286.667C317.642 287.203 317.05 287.474 316.498 287.624C314.183 288.246 311.74 287.66 309.365 287.445C306.99 287.231 304.632 287.388 302.339 286.87C301.998 286.801 301.67 286.681 301.366 286.513C300.783 286.135 300.349 285.567 300.135 284.905C300.066 284.736 300.019 284.558 299.996 284.377C299.921 283.594 300.602 282.912 301.344 282.655C302.086 282.398 302.895 282.44 303.676 282.358C305.284 282.193 306.793 281.501 307.969 280.391C309.145 279.28 309.923 277.812 310.182 276.214C310.21 276.042 314.047 276.142 314.461 276.364C314.936 276.624 315.221 277.271 315.488 277.71C315.895 278.436 316.294 279.164 316.662 279.907Z" fill="#A26565"/>
<path d="M300.067 241.957C300.017 249.677 302.257 257.222 304.886 264.464C305.927 267.336 307.031 270.183 308.199 273.005C308.891 274.677 309.672 276.535 308.93 278.185C311.07 277.371 313.245 276.892 315.495 277.267C314.64 275.517 314.722 273.481 314.682 271.551C314.61 268.908 314.328 266.273 313.841 263.674C313.085 259.718 311.79 255.884 309.993 252.281C309.629 251.522 309.378 250.713 309.247 249.881C308.955 248.044 309.183 246.158 309.565 244.34C310.386 240.323 311.946 236.495 314.165 233.051L314.187 233.279C314.32 234.428 314.513 235.57 314.764 236.698C315.267 239.088 315.856 241.482 315.766 243.886C315.673 246.435 315.831 248.988 316.237 251.506C316.368 252.495 316.626 253.463 317.004 254.386C317.25 254.939 317.571 255.457 317.764 256.033C317.956 256.694 318.057 257.38 318.063 258.069C318.349 263.881 318.063 269.783 316.879 275.481C318.866 275.324 320.852 275.899 322.628 276.792C324.017 272.713 325.032 268.516 325.66 264.253C326.433 259.211 326.276 254.069 325.196 249.084C324.859 247.422 324.733 245.723 324.821 244.029C324.975 240.653 325.802 237.352 326.626 234.073L327.881 229.071C328.476 226.689 329.07 224.318 329.665 221.958C330.06 220.383 330.46 218.772 330.335 217.15C330.248 216.26 330.061 215.383 329.779 214.535C328.888 211.65 327.556 208.922 325.831 206.447C318.958 206.832 312.004 206.189 305.146 205.661C304.813 205.595 304.468 205.653 304.176 205.825C303.942 206.063 303.803 206.378 303.783 206.711L301.205 221.358C300.794 223.394 300.555 225.462 300.492 227.538C300.492 229.611 300.813 231.675 300.734 233.744C300.609 236.53 300.082 239.167 300.067 241.957Z" fill="#454B69"/>
<path opacity="0.1" d="M314.197 233.279C314.331 234.428 314.523 235.57 314.775 236.698C316.269 234.108 317.881 231.583 319.258 228.928C319.615 228.246 319.95 227.553 320.289 226.86L321.305 224.788C321.494 224.398 321.683 224.009 321.854 223.612C322.133 223.043 322.347 222.444 322.493 221.826C321.993 221.733 320.76 223.084 320.389 223.437C319.632 224.188 318.918 224.98 318.249 225.809C317.424 226.731 316.666 227.71 315.981 228.739C315.13 230.138 314.527 231.674 314.197 233.279Z" fill="black"/>
<path d="M308.455 162.219C308.455 162.219 312.271 168.31 311.565 169.586C310.859 170.861 323.584 168.453 323.584 168.453C323.584 168.453 316.655 162.362 317.364 159.811C318.074 157.261 308.455 162.219 308.455 162.219Z" fill="#EE8E9E"/>
<path d="M311.847 164.063C316.612 164.063 320.474 160.194 320.474 155.421C320.474 150.648 316.612 146.779 311.847 146.779C307.083 146.779 303.22 150.648 303.22 155.421C303.22 160.194 307.083 164.063 311.847 164.063Z" fill="#EE8E9E"/>
<path d="M308.327 168.607C309.249 167.319 310.503 166.305 311.954 165.674C312.79 165.374 313.654 165.161 314.533 165.038L317.974 164.431C318.816 164.281 319.718 164.141 320.503 164.488C320.899 164.692 321.261 164.958 321.573 165.277C322.767 166.388 323.926 167.607 325.428 168.25C325.838 168.425 326.266 168.553 326.676 168.728C328.356 169.443 329.611 170.965 330.321 172.658C331.07 174.423 331.091 176.341 331.034 178.26C331.035 178.922 330.969 179.583 330.838 180.232C330.666 180.85 330.448 181.454 330.185 182.039C329.714 183.291 329.318 184.57 329.001 185.869C328.11 189.287 327.368 192.74 326.776 196.229C326.726 196.729 326.579 197.214 326.344 197.658C326.012 198.103 325.61 198.49 325.153 198.805C324.791 199.103 324.458 199.434 324.158 199.795C324.009 199.947 323.9 200.133 323.841 200.338C323.73 200.852 324.197 201.295 324.554 201.67C325.322 202.455 325.876 203.422 326.166 204.482C326.345 204.699 326.437 204.976 326.423 205.257C326.349 205.453 326.321 205.663 326.341 205.871C326.411 206.061 326.522 206.233 326.665 206.375C326.83 206.59 326.947 206.837 327.008 207.101C327.07 207.365 327.075 207.639 327.022 207.904C324.349 209.068 321.488 209.738 318.577 209.883C317.864 209.919 317.15 209.919 316.437 210.005C315.931 210.069 315.431 210.173 314.925 210.233C314.19 210.303 313.451 210.322 312.714 210.291C308.873 210.212 304.921 210.116 301.394 208.59C301.062 206.779 301.779 204.932 302.229 203.146C302.942 200.288 303.12 197.362 303.655 194.479C304.012 192.51 304.547 190.57 304.85 188.588C305.153 186.605 305.224 184.551 304.679 182.622C304.197 180.914 304.051 179.171 303.552 177.467C303.052 175.763 302.703 173.916 303.266 172.229C303.965 170.15 306.13 168.489 308.327 168.607Z" fill="#047BEF"/>
<path d="M304.09 150.837C303.669 149.305 304.497 147.708 305.481 146.461C306.551 145.121 307.913 143.914 309.586 143.578C310.945 143.303 312.354 143.635 313.737 143.524C314.961 143.428 316.137 142.985 317.354 142.81C318.457 142.691 319.572 142.733 320.663 142.935C321.699 143.089 322.711 143.372 323.677 143.778C327.35 145.411 329.501 149.433 330 153.424C330.499 157.414 329.643 161.437 328.755 165.363L327.967 168.914C327.147 172.612 326.327 176.323 326.109 180.103C325.891 183.883 326.298 187.763 327.849 191.214C322.832 188.514 318.945 184.105 316.89 178.785C316.334 177.324 315.92 175.805 315.299 174.369C314.768 173.133 314.087 171.961 313.616 170.7C313.084 169.277 312.828 167.765 312.864 166.245C312.892 165.102 313.081 163.966 313.049 162.823C313.017 161.68 312.724 160.49 311.936 159.661C311.223 158.929 310.242 158.59 309.34 158.114C307.92 157.384 306.678 156.347 305.706 155.078C305.139 154.335 305.107 154.006 304.964 153.163C304.821 152.32 304.311 151.648 304.09 150.837Z" fill="#454B69"/>
<path d="M304.08 215.753C303.99 216.642 304.151 217.539 303.958 218.421C303.812 219.079 303.473 219.672 303.274 220.315C303.076 221.057 302.974 221.822 302.97 222.591C302.942 223.234 302.992 224.02 303.562 224.32C303.812 224.452 304.112 224.452 304.372 224.566C304.632 224.68 304.853 224.991 304.704 225.234C304.554 225.477 304.297 225.438 304.062 225.484C303.826 225.531 303.573 225.774 303.705 225.97C303.759 226.034 303.831 226.081 303.912 226.102C304.15 226.176 304.376 226.284 304.582 226.424C304.683 226.497 304.762 226.597 304.811 226.712C304.859 226.828 304.875 226.954 304.857 227.078C304.843 227.137 304.815 227.192 304.776 227.239C304.738 227.286 304.689 227.323 304.634 227.349C304.579 227.374 304.518 227.387 304.457 227.386C304.397 227.385 304.337 227.37 304.283 227.342C304.387 227.566 304.445 227.809 304.45 228.056C303.537 228.449 302.514 227.935 301.658 227.438C301.288 227.232 300.931 227.003 300.588 226.753C299.896 226.22 299.344 225.526 298.981 224.731C298.618 223.936 298.455 223.063 298.505 222.19C298.546 221.752 298.614 221.317 298.709 220.887C298.84 220.137 299.015 219.397 299.233 218.668C299.479 217.9 299.814 217.168 300.103 216.414C300.716 214.81 301.112 213.131 301.669 211.505C301.706 211.337 301.8 211.186 301.936 211.08C302.059 211.019 302.196 210.994 302.332 211.005C302.956 210.972 303.582 211.03 304.19 211.177C304.547 211.284 305.157 211.534 305.324 211.891C305.492 212.248 305.224 212.548 305.064 212.845C304.551 213.741 304.217 214.729 304.08 215.753Z" fill="#EE8E9E"/>
<path opacity="0.1" d="M304.661 172.344C304.478 172.531 304.324 172.746 304.204 172.98C302.978 175.212 302.963 177.881 302.906 180.428C302.842 183.286 302.685 186.144 302.528 189.02L302.061 197.594C302.015 198.412 301.972 199.23 301.854 200.041C301.305 200.18 301.284 200.895 301.344 201.47C301.74 204.964 302.721 208.561 301.701 211.923C301.662 212.096 301.579 212.255 301.462 212.387C301.98 212.225 302.534 212.217 303.056 212.366C303.566 212.473 304.058 212.663 304.572 212.78C305.221 212.927 305.955 212.991 306.398 213.495C306.899 211.985 307.298 210.443 307.592 208.879C307.835 207.45 307.903 205.978 308.48 204.657C308.712 204.124 309.026 203.631 309.311 203.12C310.806 200.448 311.54 197.43 312.257 194.45C312.579 193.038 312.656 191.58 312.486 190.142C312.382 189.486 312.322 188.823 312.307 188.159C312.351 187.458 312.442 186.761 312.582 186.073C312.885 184.053 312.742 181.991 312.165 180.032C311.63 178.213 311.159 176.298 310.025 174.769C308.891 173.24 306.555 172.369 304.661 172.344Z" fill="black"/>
<path d="M304.236 172.058C304.053 172.247 303.899 172.463 303.78 172.697C302.553 174.927 302.539 177.599 302.482 180.146C302.418 183.004 302.261 185.862 302.104 188.72L301.637 197.294C301.59 198.112 301.547 198.93 301.43 199.741C300.88 199.88 300.859 200.595 300.923 201.17C301.316 204.664 302.296 208.258 301.28 211.623C301.241 211.796 301.158 211.955 301.041 212.087C301.559 211.925 302.113 211.917 302.635 212.066C303.145 212.173 303.637 212.363 304.151 212.477C304.8 212.627 305.535 212.688 305.977 213.191C306.479 211.681 306.878 210.137 307.172 208.572C307.414 207.143 307.482 205.675 308.06 204.353C308.311 203.827 308.588 203.315 308.891 202.817C310.388 200.145 311.12 197.122 311.836 194.143C312.158 192.73 312.235 191.273 312.065 189.834C311.796 188.488 311.829 187.098 312.161 185.765C312.464 183.747 312.322 181.686 311.744 179.728C311.209 177.91 310.738 175.995 309.604 174.466C308.47 172.937 306.13 172.086 304.236 172.058Z" fill="#047BEF"/>
<g opacity="0.1">
<path opacity="0.1" d="M305.481 146.461C306.551 145.121 307.913 143.914 309.586 143.578C310.945 143.303 312.354 143.635 313.737 143.524C314.961 143.428 316.137 142.985 317.354 142.81C318.457 142.691 319.572 142.733 320.663 142.935C321.699 143.089 322.711 143.372 323.677 143.778C324.198 144.012 324.696 144.296 325.164 144.625C324.305 144.29 323.411 144.051 322.5 143.91C321.41 143.708 320.296 143.666 319.194 143.785C317.974 143.942 316.801 144.382 315.574 144.478C314.194 144.589 312.785 144.26 311.423 144.532C309.75 144.868 308.381 146.079 307.321 147.418C306.333 148.662 305.51 150.259 305.927 151.795C306.148 152.602 306.662 153.309 306.801 154.142C306.94 154.974 306.975 155.314 307.546 156.057C308.278 157.01 309.162 157.834 310.164 158.497C309.889 158.368 309.607 158.239 309.34 158.1C307.92 157.369 306.678 156.332 305.706 155.064C305.139 154.32 305.107 153.992 304.964 153.149C304.821 152.306 304.311 151.613 304.09 150.802C303.669 149.305 304.497 147.708 305.481 146.461Z" fill="black"/>
<path opacity="0.1" d="M311.936 159.683C311.789 159.529 311.627 159.39 311.455 159.265C312.279 159.665 313.145 160.015 313.777 160.694C314.565 161.519 314.846 162.712 314.889 163.856C314.932 164.999 314.729 166.135 314.704 167.274C314.669 168.795 314.924 170.308 315.456 171.733C315.927 172.994 316.608 174.162 317.14 175.402C317.757 176.831 318.17 178.353 318.727 179.814C320.51 184.427 323.675 188.373 327.789 191.11C327.81 191.156 327.828 191.206 327.849 191.253C322.832 188.553 318.945 184.145 316.89 178.824C316.334 177.363 315.92 175.845 315.299 174.409C314.768 173.173 314.087 172.001 313.616 170.74C313.084 169.316 312.829 167.804 312.864 166.285C312.892 165.142 313.081 164.006 313.049 162.862C313.017 161.719 312.724 160.505 311.936 159.683Z" fill="black"/>
</g>
<path opacity="0.1" d="M69.8473 43.5057H47.1296C45.3273 43.5057 43.8663 44.9692 43.8663 46.7746V60.9573C43.8663 62.7626 45.3273 64.2261 47.1296 64.2261H69.8473C71.6496 64.2261 73.1106 62.7626 73.1106 60.9573V46.7746C73.1106 44.9692 71.6496 43.5057 69.8473 43.5057Z" fill="#047BEF"/>
<path opacity="0.1" d="M99.0916 79.9449H76.3738C74.5716 79.9449 73.1106 81.4084 73.1106 83.2138V97.3965C73.1106 99.2018 74.5716 100.665 76.3738 100.665H99.0916C100.894 100.665 102.355 99.2018 102.355 97.3965V83.2138C102.355 81.4084 100.894 79.9449 99.0916 79.9449Z" fill="#047BEF"/>
<path opacity="0.1" d="M342.318 47.0781H319.6C317.798 47.0781 316.337 48.5416 316.337 50.3469V64.5297C316.337 66.335 317.798 67.7985 319.6 67.7985H342.318C344.12 67.7985 345.581 66.335 345.581 64.5297V50.3469C345.581 48.5416 344.12 47.0781 342.318 47.0781Z" fill="#047BEF"/>
</g>
<defs>
<linearGradient id="paint0_linear" x1="315.738" y1="287.903" x2="315.738" y2="141.467" gradientUnits="userSpaceOnUse">
<stop stop-color="#808080" stop-opacity="0.25"/>
<stop offset="0.54" stop-color="#808080" stop-opacity="0.12"/>
<stop offset="1" stop-color="#808080" stop-opacity="0.1"/>
</linearGradient>
<clipPath id="clip0">
<rect width="403" height="291" fill="white"/>
</clipPath>
</defs>
</svg>
